<svg width="26" height="26" fill="none" xmlns="http://www.w3.org/2000/svg"><path d="M21.349 0H4.65A4.657 4.657 0 000 4.651V21.35A4.657 4.657 0 004.651 26H21.35A4.657 4.657 0 0026 21.349V4.65A4.657 4.657 0 0021.349 0zm3.128 21.349a3.132 3.132 0 01-3.128 3.128H4.65a3.132 3.132 0 01-3.128-3.128V4.65a3.131 3.131 0 013.128-3.128H21.35a3.131 3.131 0 013.128 3.128V21.35z" fill="#fff" fill-opacity=".8"/><path d="M21.975 5.711H10.373A2.397 2.397 0 008.105 4.08c-1.054 0-1.95.685-2.269 1.632h-1.81a.762.762 0 000 1.524h1.81a2.397 2.397 0 002.269 1.631c1.053 0 1.95-.684 2.268-1.631h11.602a.762.762 0 000-1.524zM8.105 7.343a.871.871 0 010-1.74.871.871 0 010 1.74zM21.975 12.238h-1.811a2.397 2.397 0 00-2.269-1.631c-1.053 0-1.95.684-2.268 1.631H4.025a.762.762 0 100 1.524h11.602a2.397 2.397 0 002.268 1.631c1.054 0 1.95-.684 2.269-1.631h1.81a.762.762 0 100-1.524zm-4.08 1.632a.871.871 0 010-1.74.871.871 0 010 1.74zM21.975 18.765h-8.338a2.397 2.397 0 00-2.269-1.631c-1.053 0-1.95.684-2.268 1.631H4.025a.762.762 0 000 1.524H9.1a2.397 2.397 0 002.268 1.631c1.054 0 1.95-.684 2.269-1.631h8.338a.762.762 0 000-1.524zm-10.607 1.632a.871.871 0 010-1.74.871.871 0 010 1.74z" fill="#fff" fill-opacity=".8"/></svg>