<svg viewBox="0 0 513 512" xmlns="http://www.w3.org/2000/svg" stroke-linejoin="round" stroke-miterlimit="2"><path d="M256 483.516a30.022 30.022 0 01-19.793-7.438c-20.684-18.086-40.625-35.082-58.219-50.074l-.09-.078c-51.582-43.957-96.125-81.918-127.117-119.313C16.137 264.81 0 225.172 0 181.871c0-42.07 14.426-80.883 40.617-109.293C67.121 43.832 103.488 28 143.031 28c29.555 0 56.621 9.344 80.446 27.77C235.5 65.07 246.398 76.453 256 89.73c9.605-13.277 20.5-24.66 32.527-33.96C312.352 37.344 339.418 28 368.973 28c39.539 0 75.91 15.832 102.414 44.578C497.578 100.988 512 139.801 512 181.871c0 43.3-16.133 82.938-50.777 124.738-30.993 37.399-75.532 75.356-127.106 119.309-17.625 15.016-37.597 32.039-58.328 50.168a30.05 30.05 0 01-19.789 7.43z" fill="#fff"/></svg>