<svg width="294" height="49" fill="none" xmlns="http://www.w3.org/2000/svg"><g clip-path="url(#clip0)" fill="#fff"><path d="M139.823 22.21l-1.998-3.012a.721.721 0 00-.998-.203.716.716 0 00-.203.995l1.998 3.013c.386.582.514 1.305.352 1.984l-1.401 5.852a.363.363 0 01-.058.128l-2.462 3.567a7.226 7.226 0 01-5.227 3.086 8.895 8.895 0 01-5.056-.98l-.876-.462a.655.655 0 01-.332-.426l-.623-2.6a2.094 2.094 0 00-1.262-1.456 2.103 2.103 0 00-1.919.188.386.386 0 01-.411.005l-5.138-3.167a1.82 1.82 0 00-1.339-.232l-4.542.964a1.84 1.84 0 00-.733.337l-2.437 1.87a.382.382 0 01-.198.078l-2.761.258c-.322.03-.632.118-.921.262a.718.718 0 10.642 1.285c.13-.064.269-.104.413-.117l2.762-.258c.343-.032.668-.16.941-.37l2.437-1.87a.391.391 0 01.155-.07l4.542-.964a.382.382 0 01.282.049l5.137 3.167c.598.368 1.365.36 1.954-.022a.65.65 0 01.601-.06c.2.08.344.247.394.456l.624 2.6c.14.586.526 1.083 1.06 1.363l.876.461a10.33 10.33 0 005.874 1.14 8.666 8.666 0 006.268-3.7l2.462-3.567c.128-.186.22-.39.272-.61l1.401-5.851a3.973 3.973 0 00-.552-3.11z"/><path d="M94.645 18.354l3.267-1.602a9.74 9.74 0 003.828-3.364l.292-.442a8.306 8.306 0 011.242-1.47l3.82-3.582a.387.387 0 01.521-.005l.818.74a1.826 1.826 0 002.956-.772l.446-1.335a.384.384 0 01.27-.25l1.55-.392a2.562 2.562 0 001.712-1.427l.135-.294a1.14 1.14 0 011.036-.665h2.037a1.136 1.136 0 011.045 1.584l-.572 1.323a2.498 2.498 0 00.911 3.072l2.365 1.574a2.504 2.504 0 002.139.307 2.496 2.496 0 001.585-1.464l.566-1.42a1.79 1.79 0 00.123-.526l.228-2.805a.52.52 0 01.516-.474.52.52 0 01.485.335l.882 2.35c.153.406.441.755.813.981l1.163.71a.383.383 0 01.182.29l.245 2.626a5.144 5.144 0 001.487 3.158l1.372 1.368c.235.235.457.487.66.75a.722.722 0 001.01.13.717.717 0 00.131-1.008 9.24 9.24 0 00-.783-.887l-1.371-1.368a3.702 3.702 0 01-1.072-2.276l-.245-2.626a1.826 1.826 0 00-.865-1.384l-1.163-.709a.518.518 0 01-.215-.259l-.882-2.35a1.968 1.968 0 00-1.834-1.268 1.967 1.967 0 00-1.951 1.795l-.228 2.804a.383.383 0 01-.026.111l-.566 1.42a1.069 1.069 0 01-1.587.493l-2.364-1.573a1.064 1.064 0 01-.388-1.309l.571-1.322a2.57 2.57 0 00.208-1.148 2.574 2.574 0 00-2.575-2.441h-2.037c-1.008 0-1.929.59-2.346 1.505l-.135.295a1.131 1.131 0 01-.756.63l-1.55.392a1.816 1.816 0 00-1.282 1.188l-.446 1.335a.383.383 0 01-.622.162l-.818-.74a1.837 1.837 0 00-2.475.022l-3.82 3.582a9.745 9.745 0 00-1.458 1.726l-.292.442a8.296 8.296 0 01-3.262 2.866l-3.266 1.602a4.735 4.735 0 00-2.228 6.228l3.565 7.789c.136.297.14.64.014.941l-.072.17a2.594 2.594 0 00.561 2.856 2.619 2.619 0 001.852.762c.502 0 1.007-.143 1.448-.436.33-.22.42-.666.2-.996a.721.721 0 00-1-.2 1.18 1.18 0 01-1.481-.146 1.165 1.165 0 01-.253-1.283l.072-.17a2.608 2.608 0 00-.031-2.095l-3.565-7.788a3.302 3.302 0 011.553-4.343zM132.966 40.904c-1.092-.495-3.199-.228-4.357-.025-.571.1-1.908.335-2.413 1.426a1.927 1.927 0 00.548 2.274c.346.271.726.382 1.062.48.222.065.431.126.562.218.143.102.282.301.429.512.276.396.62.889 1.25 1.08.176.053.35.073.518.073.29 0 .565-.062.813-.127a18.823 18.823 0 001.997-.645c.217-.084.62-.24.867-.634.475-.758.379-1.906.13-2.729-.165-.547-.568-1.523-1.406-1.903zm.069 3.846a1.3 1.3 0 01-.181.08c-.6.232-1.22.433-1.842.596-.145.038-.414.108-.548.067-.151-.045-.313-.278-.484-.524-.202-.289-.43-.616-.779-.863-.327-.232-.68-.335-.99-.425-.232-.068-.45-.131-.576-.23a.486.486 0 01-.131-.544c.167-.362.811-.518 1.354-.613.887-.155 1.716-.235 2.366-.235.518 0 .921.05 1.146.153.178.08.449.43.623 1.01.197.652.176 1.276.042 1.528z"/></g><path d="M15.504 34.848c.028.112.042.21.042.294v.252c0 .28-.07.476-.21.588-.112.112-.35.168-.714.168-.336 0-.56-.056-.672-.168-.168-.168-.392-.602-.672-1.302-.28-.7-.574-1.526-.882-2.478a84.535 84.535 0 01-.924-3.066c-.28-1.092-.532-2.128-.756-3.108-.308.14-.728.294-1.26.462-.532.14-1.078.28-1.638.42-.644.14-1.316.294-2.016.462a69.607 69.607 0 00-.588 3.108c-.112.84-.224 1.54-.336 2.1-.084.532-.21.924-.378 1.176-.14.28-.378.42-.714.42-.224 0-.42-.126-.588-.378-.168-.252-.252-.63-.252-1.134 0-.252.07-.84.21-1.764l.462-3.066c.168-1.148.336-2.282.504-3.402.168-1.12.28-2.002.336-2.646.028-.336.112-.882.252-1.638.168-.756.336-1.526.504-2.31.168-.812.336-1.54.504-2.184.168-.644.28-1.008.336-1.092.448-1.036.728-2.1.84-3.192.14-1.092.238-2.086.294-2.982.084-.924.21-1.666.378-2.226.168-.588.518-.882 1.05-.882.14 0 .28.112.42.336.168.224.322.49.462.798.14.308.252.616.336.924.084.28.14.504.168.672.028.168.056.504.084 1.008.056.504.098 1.064.126 1.68.056.588.098 1.176.126 1.764.056.56.098.994.126 1.302.084.924.21 1.96.378 3.108.196 1.148.392 2.226.588 3.234a61.66 61.66 0 00.546 2.562c.168.672.294 1.008.378 1.008.112 0 .252-.028.42-.084.196-.056.378-.084.546-.084.224 0 .336.112.336.336 0 .224-.056.406-.168.546-.112.14-.238.266-.378.378-.112.112-.224.21-.336.294a.403.403 0 00-.126.294c0 .224.126.798.378 1.722l.672 2.478c.056.224.182.602.378 1.134.196.532.392 1.092.588 1.68.224.56.42 1.078.588 1.554.168.504.252.812.252.924zM6.18 25.23c.168 0 .476-.042.924-.126.448-.112.91-.238 1.386-.378.476-.14.896-.28 1.26-.42.364-.14.546-.252.546-.336 0-.084-.056-.294-.168-.63a46.657 46.657 0 00-.336-1.344l-.378-1.89c-.14-.7-.266-1.442-.378-2.226-.056-.504-.126-1.19-.21-2.058-.084-.868-.168-1.722-.252-2.562-.084-.868-.154-1.61-.21-2.226l-.084-.924-.126.63c-.084.392-.182.84-.294 1.344-.084.476-.168.938-.252 1.386-.056.42-.084.658-.084.714v1.176c0 .056-.042.308-.126.756-.056.42-.14.966-.252 1.638-.112.644-.238 1.358-.378 2.142-.112.756-.224 1.484-.336 2.184-.112.7-.21 1.33-.294 1.89-.056.532-.084.896-.084 1.092 0 .112.042.168.126.168zm27.016.798c0 .252-.168.518-.504.798-.336.28-.728.546-1.176.798-.448.224-.91.42-1.386.588-.448.168-.784.252-1.008.252-.252 0-.532-.07-.84-.21-.28-.14-.56-.308-.84-.504a18.35 18.35 0 01-.672-.546 8.522 8.522 0 01-.378-.336c-.084.084-.21.252-.378.504s-.378.532-.63.84c-.224.28-.476.532-.756.756-.252.224-.518.336-.798.336-.728 0-1.358-.392-1.89-1.176-.532-.784-.98-1.68-1.344-2.688a26.727 26.727 0 01-.798-2.898c-.168-.952-.252-1.596-.252-1.932 0-.196.098-.35.294-.462.224-.14.392-.21.504-.21.392 0 .658.14.798.42.14.252.21.532.21.84 0 .252.07.7.21 1.344.168.644.364 1.302.588 1.974.224.672.462 1.274.714 1.806.252.504.476.756.672.756.364 0 .672-.224.924-.672.28-.476.504-1.008.672-1.596.168-.616.294-1.19.378-1.722.084-.56.126-.924.126-1.092v-.252l.084-.504c.028-.168.042-.322.042-.462a1.77 1.77 0 00.042-.294c0-.196-.042-.322-.126-.378-.084-.084-.126-.238-.126-.462 0-.168.084-.322.252-.462.168-.168.532-.252 1.092-.252.224 0 .392.07.504.21.14.112.238.252.294.42.056.168.084.336.084.504.028.14.042.238.042.294 0 .028-.014.224-.042.588-.028.364-.056.77-.084 1.218 0 .42-.014.826-.042 1.218-.028.392-.042.63-.042.714 0 .084.042.252.126.504.084.252.182.518.294.798.14.252.294.49.462.714.168.196.35.294.546.294.336 0 .644-.042.924-.126.308-.112.588-.224.84-.336.28-.14.532-.252.756-.336.224-.112.434-.168.63-.168.252 0 .476.056.672.168.224.112.336.252.336.42zm11.136 1.428c0 .476-.168.896-.504 1.26-.308.336-.714.63-1.218.882a8.207 8.207 0 01-1.596.546c-.588.14-1.148.252-1.68.336-.532.056-1.008.098-1.428.126h-.756c-.616 0-1.092-.098-1.428-.294-.336-.196-.504-.546-.504-1.05 0-.168.014-.308.042-.42.028-.14.14-.21.336-.21.084 0 .224.028.42.084.196.028.35.042.462.042.112 0 .462-.014 1.05-.042a26.2 26.2 0 001.932-.252 9.887 9.887 0 001.848-.462c.56-.224.84-.504.84-.84 0-.056-.294-.224-.882-.504a73.746 73.746 0 01-2.562-1.512c-.896-.56-1.526-1.12-1.89-1.68-.364-.588-.546-1.372-.546-2.352 0-.616.126-1.12.378-1.512.28-.392.644-.7 1.092-.924a5.582 5.582 0 011.596-.462c.616-.112 1.26-.168 1.932-.168.056 0 .224.028.504.084.308.056.63.154.966.294.336.112.63.266.882.462.28.168.42.364.42.588 0 .056-.056.14-.168.252-.084.112-.238.322-.462.63a7.396 7.396 0 00-.462-.126 9.26 9.26 0 00-.714-.168 3.67 3.67 0 00-.798-.168 3.614 3.614 0 00-.672-.084c-.728 0-1.316.14-1.764.42-.448.252-.672.756-.672 1.512 0 .364.14.7.42 1.008.308.308.686.602 1.134.882.448.252.924.518 1.428.798.532.252 1.022.532 1.47.84.448.308.812.644 1.092 1.008.308.336.462.728.462 1.176zm13.043 0c0 .476-.168.896-.504 1.26-.308.336-.714.63-1.218.882a8.207 8.207 0 01-1.596.546c-.588.14-1.148.252-1.68.336-.532.056-1.008.098-1.428.126h-.756c-.616 0-1.092-.098-1.428-.294-.336-.196-.504-.546-.504-1.05 0-.168.014-.308.042-.42.028-.14.14-.21.336-.21.084 0 .224.028.42.084.196.028.35.042.462.042.112 0 .462-.014 1.05-.042a26.2 26.2 0 001.932-.252 9.887 9.887 0 001.848-.462c.56-.224.84-.504.84-.84 0-.056-.294-.224-.882-.504a73.746 73.746 0 01-2.562-1.512c-.896-.56-1.526-1.12-1.89-1.68-.364-.588-.546-1.372-.546-2.352 0-.616.126-1.12.378-1.512.28-.392.644-.7 1.092-.924a5.582 5.582 0 011.596-.462c.616-.112 1.26-.168 1.932-.168.056 0 .224.028.504.084.308.056.63.154.966.294.336.112.63.266.882.462.28.168.42.364.42.588 0 .056-.056.14-.168.252-.084.112-.238.322-.462.63a7.396 7.396 0 00-.462-.126 9.26 9.26 0 00-.714-.168 3.67 3.67 0 00-.798-.168 3.614 3.614 0 00-.672-.084c-.728 0-1.316.14-1.764.42-.448.252-.672.756-.672 1.512 0 .364.14.7.42 1.008.308.308.686.602 1.134.882.448.252.924.518 1.428.798.532.252 1.022.532 1.47.84.448.308.812.644 1.092 1.008.308.336.462.728.462 1.176zm6.071-13.776c0 .056-.098.168-.294.336-.196.168-.434.35-.714.546a7.414 7.414 0 01-.798.462c-.28.14-.504.21-.672.21h-.462a2.403 2.403 0 01-.546-.168 1.773 1.773 0 01-.462-.336.95.95 0 01-.21-.63c0-.392.14-.756.42-1.092.28-.364.644-.546 1.092-.546.084 0 .266.042.546.126.308.056.616.14.924.252.308.112.574.238.798.378.252.14.378.294.378.462zm1.386 15.708c0 .196-.154.364-.462.504-.28.14-.49.21-.63.21-.28 0-.532-.182-.756-.546a6.576 6.576 0 01-.588-1.26 17.967 17.967 0 01-.42-1.344 14.793 14.793 0 00-.252-.924c-.084-.28-.196-.616-.336-1.008s-.28-.77-.42-1.134c-.112-.364-.21-.686-.294-.966a4.297 4.297 0 01-.126-.462c0-.392.07-.756.21-1.092.168-.336.364-.504.588-.504.252 0 .518.196.798.588.28.392.546.896.798 1.512.28.588.532 1.246.756 1.974.224.7.42 1.372.588 2.016.168.616.294 1.162.378 1.638.112.448.168.714.168.798zm14.334-.798c.028.056.042.14.042.252 0 .168-.126.42-.378.756-.084.112-.266.294-.546.546-.28.252-.658.504-1.134.756-.476.252-1.064.476-1.764.672-.672.196-1.47.294-2.394.294-.644 0-1.274-.14-1.89-.42a5.184 5.184 0 01-1.638-1.302c-.476-.588-.868-1.302-1.176-2.142-.308-.868-.462-1.876-.462-3.024 0-1.092.14-2.114.42-3.066.28-.952.63-1.792 1.05-2.52.448-.728.938-1.302 1.47-1.722.532-.42 1.05-.63 1.554-.63.448 0 .896.098 1.344.294.476.168.896.392 1.26.672.392.28.7.602.924.966.224.336.336.686.336 1.05 0 .42-.196.854-.588 1.302a7.284 7.284 0 01-1.344 1.26c-.532.364-1.064.672-1.596.924-.532.224-.952.336-1.26.336a.642.642 0 01-.462-.21 1.035 1.035 0 01-.168-.588c0-.392.168-.7.504-.924.364-.224.756-.42 1.176-.588.42-.196.798-.42 1.134-.672.364-.252.546-.602.546-1.05 0-.056-.07-.196-.21-.42-.14-.224-.518-.336-1.134-.336-.28 0-.602.168-.966.504-.364.308-.714.742-1.05 1.302-.336.532-.616 1.176-.84 1.932a8.11 8.11 0 00-.336 2.394c0 .728.126 1.386.378 1.974.28.588.63 1.092 1.05 1.512.42.392.91.7 1.47.924.56.224 1.134.336 1.722.336.42 0 .868-.084 1.344-.252.504-.196.966-.392 1.386-.588.448-.224.826-.42 1.134-.588.336-.196.546-.294.63-.294.084 0 .168.042.252.126a.56.56 0 01.21.252zm85.717 6.258c.028.112.042.21.042.294v.252c0 .28-.07.476-.21.588-.112.112-.35.168-.714.168-.336 0-.56-.056-.672-.168-.168-.168-.392-.602-.672-1.302-.28-.7-.574-1.526-.882-2.478a84.535 84.535 0 01-.924-3.066c-.28-1.092-.532-2.128-.756-3.108-.308.14-.728.294-1.26.462-.532.14-1.078.28-1.638.42-.644.14-1.316.294-2.016.462a69.607 69.607 0 00-.588 3.108c-.112.84-.224 1.54-.336 2.1-.084.532-.21.924-.378 1.176-.14.28-.378.42-.714.42-.224 0-.42-.126-.588-.378-.168-.252-.252-.63-.252-1.134 0-.252.07-.84.21-1.764l.462-3.066c.168-1.148.336-2.282.504-3.402.168-1.12.28-2.002.336-2.646.028-.336.112-.882.252-1.638.168-.756.336-1.526.504-2.31.168-.812.336-1.54.504-2.184.168-.644.28-1.008.336-1.092.448-1.036.728-2.1.84-3.192.14-1.092.238-2.086.294-2.982.084-.924.21-1.666.378-2.226.168-.588.518-.882 1.05-.882.14 0 .28.112.42.336.168.224.322.49.462.798.14.308.252.616.336.924.084.28.14.504.168.672.028.168.056.504.084 1.008.056.504.098 1.064.126 1.68.056.588.098 1.176.126 1.764.056.56.098.994.126 1.302.084.924.21 1.96.378 3.108.196 1.148.392 2.226.588 3.234a61.66 61.66 0 00.546 2.562c.168.672.294 1.008.378 1.008.112 0 .252-.028.42-.084.196-.056.378-.084.546-.084.224 0 .336.112.336.336 0 .224-.056.406-.168.546-.112.14-.238.266-.378.378-.112.112-.224.21-.336.294a.403.403 0 00-.126.294c0 .224.126.798.378 1.722l.672 2.478c.056.224.182.602.378 1.134.196.532.392 1.092.588 1.68.224.56.42 1.078.588 1.554.168.504.252.812.252.924zm-9.324-9.618c.168 0 .476-.042.924-.126.448-.112.91-.238 1.386-.378.476-.14.896-.28 1.26-.42.364-.14.546-.252.546-.336 0-.084-.056-.294-.168-.63a46.675 46.675 0 00-.336-1.344l-.378-1.89c-.14-.7-.266-1.442-.378-2.226-.056-.504-.126-1.19-.21-2.058-.084-.868-.168-1.722-.252-2.562-.084-.868-.154-1.61-.21-2.226l-.084-.924-.126.63c-.084.392-.182.84-.294 1.344-.084.476-.168.938-.252 1.386-.056.42-.084.658-.084.714v1.176c0 .056-.042.308-.126.756-.056.42-.14.966-.252 1.638-.112.644-.238 1.358-.378 2.142-.112.756-.224 1.484-.336 2.184-.112.7-.21 1.33-.294 1.89-.056.532-.084.896-.084 1.092 0 .112.042.168.126.168zm25.084 1.008c0 .14-.07.28-.21.42a.732.732 0 00-.21.378c0 .308.056.602.168.882.14.28.21.616.21 1.008 0 .364-.112.546-.336.546-.28 0-.49.042-.63.126-.112.056-.322.112-.63.168-.168 0-.35-.154-.546-.462a2.171 2.171 0 01-.294-.504c0-.028-.084.028-.252.168-.14.14-.392.308-.756.504-.336.168-.812.336-1.428.504-.588.14-1.344.21-2.268.21-.784 0-1.47-.168-2.058-.504a4.963 4.963 0 01-1.47-1.386 6.814 6.814 0 01-.84-1.89 9.685 9.685 0 01-.252-2.184c0-.672.07-1.302.21-1.89a5.953 5.953 0 01.672-1.596c.28-.476.63-.854 1.05-1.134.42-.28.91-.42 1.47-.42.532 0 1.064.168 1.596.504a9.59 9.59 0 011.428 1.092c.42.392.756.756 1.008 1.092l.42.462c-.392-2.184-.742-4.158-1.05-5.922-.14-.756-.28-1.498-.42-2.226a50.233 50.233 0 00-.336-2.016 67.544 67.544 0 00-.294-1.47 9.23 9.23 0 01-.084-.756 10.463 10.463 0 01-.084-.882l-.084-1.386c-.028-.476-.056-.91-.084-1.302-.028-.392-.056-.644-.084-.756-.084-.28-.196-.63-.336-1.05-.112-.42-.168-.658-.168-.714 0-.14.07-.308.21-.504.14-.224.322-.336.546-.336.168 0 .322.014.462.042a.65.65 0 01.378.252c.112.14.21.364.294.672.112.28.21.686.294 1.218.028.28.112.812.252 1.596s.28 1.638.42 2.562c.14.924.28 1.806.42 2.646.14.84.238 1.456.294 1.848.14 1.064.322 2.226.546 3.486a255 255 0 00.756 3.57c.252 1.148.504 2.17.756 3.066.252.868.476 1.456.672 1.764.056.112.168.196.336.252.168.028.28.112.336.252zm-3.108.84c-.028-.084-.21-.434-.546-1.05a15.122 15.122 0 00-1.218-2.058 10.52 10.52 0 00-1.638-2.016c-.588-.588-1.162-.882-1.722-.882-.476 0-.868.364-1.176 1.092-.28.728-.42 1.568-.42 2.52 0 1.064.308 1.918.924 2.562.644.644 1.358.966 2.142.966.672 0 1.372-.112 2.1-.336.728-.224 1.246-.49 1.554-.798zm14.505-8.862c0 .084-.07.448-.21 1.092-.14.644-.28 1.372-.42 2.184-.084.476-.224 1.19-.42 2.142-.168.924-.252 2.338-.252 4.242 0 .056-.014.21-.042.462 0 .224-.042.462-.126.714-.056.252-.154.49-.294.714-.14.196-.35.294-.63.294-.252 0-.532-.112-.84-.336a11.468 11.468 0 01-1.932-1.764 11.688 11.688 0 01-1.512-2.184 11.994 11.994 0 01-.966-2.52 10.547 10.547 0 01-.336-2.646c0-.112.07-.21.21-.294.168-.112.294-.168.378-.168.42 0 .742.238.966.714.252.476.49 1.05.714 1.722.252.672.532 1.386.84 2.142a5.325 5.325 0 001.47 1.89c.084-.112.154-.322.21-.63.056-.308.098-.574.126-.798.028-.196.07-.574.126-1.134.056-.588.112-1.204.168-1.848.084-.644.14-1.26.168-1.848.056-.588.084-.994.084-1.218 0-.168.014-.364.042-.588.028-.224.084-.434.168-.63.112-.196.252-.364.42-.504.168-.14.392-.21.672-.21.14 0 .378.098.714.294.336.168.504.406.504.714zm15.381 10.374c.028.056.042.14.042.252 0 .168-.126.42-.378.756-.084.112-.266.294-.546.546-.28.252-.658.504-1.134.756-.476.252-1.064.476-1.764.672-.672.196-1.47.294-2.394.294-.644 0-1.274-.14-1.89-.42a5.184 5.184 0 01-1.638-1.302c-.476-.588-.868-1.302-1.176-2.142-.308-.868-.462-1.876-.462-3.024 0-1.092.14-2.114.42-3.066.28-.952.63-1.792 1.05-2.52.448-.728.938-1.302 1.47-1.722.532-.42 1.05-.63 1.554-.63.448 0 .896.098 1.344.294.476.168.896.392 1.26.672.392.28.7.602.924.966.224.336.336.686.336 1.05 0 .42-.196.854-.588 1.302a7.284 7.284 0 01-1.344 1.26c-.532.364-1.064.672-1.596.924-.532.224-.952.336-1.26.336a.642.642 0 01-.462-.21 1.035 1.035 0 01-.168-.588c0-.392.168-.7.504-.924.364-.224.756-.42 1.176-.588.42-.196.798-.42 1.134-.672.364-.252.546-.602.546-1.05 0-.056-.07-.196-.21-.42-.14-.224-.518-.336-1.134-.336-.28 0-.602.168-.966.504-.364.308-.714.742-1.05 1.302-.336.532-.616 1.176-.84 1.932a8.11 8.11 0 00-.336 2.394c0 .728.126 1.386.378 1.974.28.588.63 1.092 1.05 1.512.42.392.91.7 1.47.924.56.224 1.134.336 1.722.336.42 0 .868-.084 1.344-.252.504-.196.966-.392 1.386-.588.448-.224.826-.42 1.134-.588.336-.196.546-.294.63-.294.084 0 .168.042.252.126a.56.56 0 01.21.252zm15.567-.756a.903.903 0 01-.168.504 2.166 2.166 0 01-.42.462 2.37 2.37 0 01-.504.378 1.045 1.045 0 01-.462.126c-.476 0-1.092-.098-1.848-.294-.728-.224-1.316-.56-1.764-1.008a7.752 7.752 0 01-1.26-1.68c-.364-.672-.77-1.652-1.218-2.94a42.059 42.059 0 01-1.092 3.654c-.392 1.204-1.036 2.31-1.932 3.318-.056.056-.14.084-.252.084-.196 0-.406-.098-.63-.294-.224-.196-.336-.392-.336-.588 0-.196-.028-.644-.084-1.344a92.804 92.804 0 00-.126-2.394l-.168-2.688a77.802 77.802 0 01-.042-2.268c0-.28.014-.644.042-1.092.028-.476.112-.882.252-1.218.028-.056.126-.168.294-.336a.952.952 0 01.63-.252c.196 0 .308.126.336.378.028.252.042.532.042.84v6.636c0 .14.014.336.042.588.056.252.126.434.21.546.308-.672.588-1.456.84-2.352.28-.924.546-1.792.798-2.604.252-.84.504-1.54.756-2.1.252-.588.504-.882.756-.882.28 0 .504.056.672.168.168.112.308.336.42.672.14.812.252 1.54.336 2.184.084.616.182 1.176.294 1.68.14.504.322.98.546 1.428.252.42.588.812 1.008 1.176.392.364.826.63 1.302.798.504.168.938.252 1.302.252.168 0 .35-.028.546-.084.196-.084.336-.126.42-.126.112 0 .21.098.294.294.112.196.168.322.168.378zm13.296-13.818c-.364.42-.882.84-1.554 1.26-.672.392-1.344.756-2.016 1.092l-1.764.882c-.504.224-.756.378-.756.462 0 .084.056.336.168.756.112.42.238.924.378 1.512.168.56.336 1.148.504 1.764.168.616.308 1.162.42 1.638.056.28.126.644.21 1.092.084.448.154.896.21 1.344.084.448.154.854.21 1.218.056.336.084.518.084.546 0 .42-.07.854-.21 1.302-.14.448-.364.672-.672.672a.642.642 0 01-.462-.21 3.022 3.022 0 01-.378-.462 3.078 3.078 0 01-.252-.546 1.333 1.333 0 01-.084-.378v-.252c.028-.112.042-.238.042-.378 0-.532-.084-1.302-.252-2.31a21.65 21.65 0 00-.336-1.428c-.168-.644-.336-1.302-.504-1.974a125.18 125.18 0 00-.672-2.562c-.112-.392-.182-.588-.21-.588-.196 0-.532.126-1.008.378-.448.224-.966.518-1.554.882a37.01 37.01 0 00-1.848 1.134c-.644.392-1.246.77-1.806 1.134-.56.336-1.036.63-1.428.882-.42.224-.672.336-.756.336-.364 0-.658-.126-.882-.378a1.235 1.235 0 01-.336-.84c0-.168.238-.406.714-.714a15.7 15.7 0 011.722-1.092 50.261 50.261 0 012.226-1.218 87.85 87.85 0 012.184-1.134c.7-.336 1.274-.616 1.722-.84l.714-.336a126.231 126.231 0 01-.63-3.444c-.14-.868-.28-1.666-.42-2.394-.112-.728-.168-1.12-.168-1.176 0-.364.07-.63.21-.798.168-.196.35-.294.546-.294.308 0 .504.21.588.63.308 1.512.588 2.856.84 4.032.28 1.176.546 2.128.798 2.856.252-.056.686-.21 1.302-.462.616-.28 1.26-.574 1.932-.882a63.93 63.93 0 011.806-.798c.56-.252.882-.378.966-.378.168 0 .266.056.294.168.056.112.112.21.168.294zm16.1 12.012c0 .252-.168.518-.504.798-.336.28-.728.546-1.176.798-.448.224-.91.42-1.386.588-.448.168-.784.252-1.008.252-.252 0-.532-.07-.84-.21-.28-.14-.56-.308-.84-.504a18.35 18.35 0 01-.672-.546 8.522 8.522 0 01-.378-.336c-.084.084-.21.252-.378.504s-.378.532-.63.84c-.224.28-.476.532-.756.756-.252.224-.518.336-.798.336-.728 0-1.358-.392-1.89-1.176-.532-.784-.98-1.68-1.344-2.688a26.727 26.727 0 01-.798-2.898c-.168-.952-.252-1.596-.252-1.932 0-.196.098-.35.294-.462.224-.14.392-.21.504-.21.392 0 .658.14.798.42.14.252.21.532.21.84 0 .252.07.7.21 1.344.168.644.364 1.302.588 1.974.224.672.462 1.274.714 1.806.252.504.476.756.672.756.364 0 .672-.224.924-.672.28-.476.504-1.008.672-1.596.168-.616.294-1.19.378-1.722.084-.56.126-.924.126-1.092v-.252l.084-.504c.028-.168.042-.322.042-.462a1.77 1.77 0 00.042-.294c0-.196-.042-.322-.126-.378-.084-.084-.126-.238-.126-.462 0-.168.084-.322.252-.462.168-.168.532-.252 1.092-.252.224 0 .392.07.504.21.14.112.238.252.294.42.056.168.084.336.084.504.028.14.042.238.042.294 0 .028-.014.224-.042.588-.028.364-.056.77-.084 1.218 0 .42-.014.826-.042 1.218-.028.392-.042.63-.042.714 0 .084.042.252.126.504.084.252.182.518.294.798.14.252.294.49.462.714.168.196.35.294.546.294.336 0 .644-.042.924-.126.308-.112.588-.224.84-.336.28-.14.532-.252.756-.336.224-.112.434-.168.63-.168.252 0 .476.056.672.168.224.112.336.252.336.42zm11.598-5.838a.636.636 0 01-.252.504 2.88 2.88 0 01-.588.294 6.187 6.187 0 01-.672.21 4.594 4.594 0 01-.546.042c-.42 0-.7-.028-.84-.084a.968.968 0 00-.336-.084c-.7 0-1.26.056-1.68.168-.42.112-.756.294-1.008.546-.224.252-.378.574-.462.966a9.044 9.044 0 00-.084 1.344c0 .896.028 1.61.084 2.142.084.532.154.966.21 1.302.084.336.154.602.21.798.084.168.126.336.126.504 0 .224-.126.462-.378.714-.224.252-.434.378-.63.378-.336 0-.644-.294-.924-.882a14.958 14.958 0 01-.672-2.142 41.672 41.672 0 01-.42-2.478c-.112-.812-.168-1.428-.168-1.848 0-.476.042-.924.126-1.344.084-.448.196-.826.336-1.134.14-.336.294-.602.462-.798.168-.196.336-.294.504-.294a.4.4 0 01.336.168.986.986 0 01.21.336l.168.336a.403.403 0 00.294.126c.252 0 .658-.126 1.218-.378.56-.252 1.246-.378 2.058-.378.756 0 1.316.028 1.68.084.392.028.77.112 1.134.252a.827.827 0 01.294.21c.14.084.21.224.21.42zm15.053 8.4c.028.056.042.14.042.252 0 .168-.126.42-.378.756-.084.112-.266.294-.546.546-.28.252-.658.504-1.134.756-.476.252-1.064.476-1.764.672-.672.196-1.47.294-2.394.294-.644 0-1.274-.14-1.89-.42a5.184 5.184 0 01-1.638-1.302c-.476-.588-.868-1.302-1.176-2.142-.308-.868-.462-1.876-.462-3.024 0-1.092.14-2.114.42-3.066.28-.952.63-1.792 1.05-2.52.448-.728.938-1.302 1.47-1.722.532-.42 1.05-.63 1.554-.63.448 0 .896.098 1.344.294.476.168.896.392 1.26.672.392.28.7.602.924.966.224.336.336.686.336 1.05 0 .42-.196.854-.588 1.302a7.284 7.284 0 01-1.344 1.26c-.532.364-1.064.672-1.596.924-.532.224-.952.336-1.26.336a.642.642 0 01-.462-.21 1.035 1.035 0 01-.168-.588c0-.392.168-.7.504-.924.364-.224.756-.42 1.176-.588.42-.196.798-.42 1.134-.672.364-.252.546-.602.546-1.05 0-.056-.07-.196-.21-.42-.14-.224-.518-.336-1.134-.336-.28 0-.602.168-.966.504-.364.308-.714.742-1.05 1.302-.336.532-.616 1.176-.84 1.932a8.11 8.11 0 00-.336 2.394c0 .728.126 1.386.378 1.974.28.588.63 1.092 1.05 1.512.42.392.91.7 1.47.924.56.224 1.134.336 1.722.336.42 0 .868-.084 1.344-.252.504-.196.966-.392 1.386-.588.448-.224.826-.42 1.134-.588.336-.196.546-.294.63-.294.084 0 .168.042.252.126a.56.56 0 01.21.252zm12.416-1.134c0 .476-.168.896-.504 1.26-.308.336-.714.63-1.218.882a8.207 8.207 0 01-1.596.546c-.588.14-1.148.252-1.68.336-.532.056-1.008.098-1.428.126h-.756c-.616 0-1.092-.098-1.428-.294-.336-.196-.504-.546-.504-1.05 0-.168.014-.308.042-.42.028-.14.14-.21.336-.21.084 0 .224.028.42.084.196.028.35.042.462.042.112 0 .462-.014 1.05-.042a26.2 26.2 0 001.932-.252 9.887 9.887 0 001.848-.462c.56-.224.84-.504.84-.84 0-.056-.294-.224-.882-.504a73.746 73.746 0 01-2.562-1.512c-.896-.56-1.526-1.12-1.89-1.68-.364-.588-.546-1.372-.546-2.352 0-.616.126-1.12.378-1.512.28-.392.644-.7 1.092-.924a5.582 5.582 0 011.596-.462c.616-.112 1.26-.168 1.932-.168.056 0 .224.028.504.084.308.056.63.154.966.294.336.112.63.266.882.462.28.168.42.364.42.588 0 .056-.056.14-.168.252-.084.112-.238.322-.462.63a7.396 7.396 0 00-.462-.126 9.26 9.26 0 00-.714-.168 3.67 3.67 0 00-.798-.168 3.614 3.614 0 00-.672-.084c-.728 0-1.316.14-1.764.42-.448.252-.672.756-.672 1.512 0 .364.14.7.42 1.008.308.308.686.602 1.134.882.448.252.924.518 1.428.798.532.252 1.022.532 1.47.84.448.308.812.644 1.092 1.008.308.336.462.728.462 1.176z" fill="#fff"/><defs><clipPath id="clip0"><path fill="#fff" transform="translate(91.352)" d="M0 0h49.131v49H0z"/></clipPath></defs></svg>